<!-- Generator: Adobe Illustrator 23.0.5, SVG Export Plug-In  -->
<svg version="1.1" xmlns="http://www.w3.org/2000/svg" xmlns:xlink="http://www.w3.org/1999/xlink" x="0px" y="0px" width="26.18px"
	 height="26.18px" viewBox="0 0 26.18 26.18" style="enable-background:new 0 0 26.18 26.18;" xml:space="preserve">
<style type="text/css">
	.st0{fill:#40B24A;}
</style>
<defs>
</defs>
<path class="st0" d="M13.09,0C5.86,0,0,5.86,0,13.09c0,7.23,5.86,13.09,13.09,13.09c7.23,0,13.09-5.86,13.09-13.09
	C26.18,5.86,20.32,0,13.09,0 M20,19.1l-1.05,1.05c-0.19,0.19-0.73,0.3-0.75,0.3c-3.32,0.03-6.51-1.27-8.85-3.62
	c-2.35-2.35-3.66-5.56-3.62-8.88c0,0,0.12-0.54,0.3-0.72l1.05-1.05C7.47,5.79,8.2,5.62,8.72,5.79l0.22,0.07
	c0.51,0.17,1.05,0.74,1.2,1.27l0.53,1.93c0.14,0.52-0.05,1.27-0.44,1.65l-0.7,0.7c0.69,2.54,2.68,4.54,5.23,5.23l0.7-0.7
	c0.38-0.38,1.13-0.58,1.66-0.43l1.94,0.53c0.52,0.14,1.09,0.68,1.26,1.19l0.07,0.22C20.56,17.98,20.39,18.71,20,19.1"/>
</svg>
