<!-- Generator: Adobe Illustrator 23.0.5, SVG Export Plug-In  -->
<svg version="1.1" xmlns="http://www.w3.org/2000/svg" xmlns:xlink="http://www.w3.org/1999/xlink" x="0px" y="0px" width="44.88px"
	 height="44.88px" viewBox="0 0 44.88 44.88" style="enable-background:new 0 0 44.88 44.88;" xml:space="preserve">
<style type="text/css">
	.st0{fill:#52BA77;}
</style>
<defs>
</defs>
<g>
	<path class="st0" d="M42.56,44.88c-1.28,0-2.32-1.04-2.32-2.32c0-1.28,1.04-2.32,2.32-2.32c1.28,0,2.32,1.04,2.32,2.32
		C44.88,43.84,43.84,44.88,42.56,44.88L42.56,44.88z M42.56,41.78c-0.43,0-0.77,0.35-0.77,0.77c0,0.43,0.35,0.77,0.77,0.77
		c0.43,0,0.77-0.35,0.77-0.77C43.33,42.13,42.98,41.78,42.56,41.78L42.56,41.78z M42.56,41.78"/>
	<path class="st0" d="M2.32,4.64C1.04,4.64,0,3.6,0,2.32C0,1.04,1.04,0,2.32,0C3.6,0,4.64,1.04,4.64,2.32
		C4.64,3.6,3.6,4.64,2.32,4.64L2.32,4.64z M2.32,1.55c-0.43,0-0.77,0.35-0.77,0.77c0,0.43,0.34,0.77,0.77,0.77
		c0.43,0,0.77-0.35,0.77-0.77C3.09,1.89,2.75,1.55,2.32,1.55L2.32,1.55z M2.32,1.55"/>
	<rect x="1.55" y="6.96" class="st0" width="1.55" height="1.55"/>
	<rect x="1.55" y="10.83" class="st0" width="1.55" height="1.55"/>
	<rect x="1.55" y="14.7" class="st0" width="1.55" height="1.55"/>
	<rect x="41.78" y="28.63" class="st0" width="1.55" height="1.55"/>
	<rect x="41.78" y="32.5" class="st0" width="1.55" height="1.55"/>
	<rect x="41.78" y="36.37" class="st0" width="1.55" height="1.55"/>
	<path class="st0" d="M6.19,41.01H3.87V28.63h2.32V41.01z M16.57,41.01l-2.32-2.32H7.74v-8.51h8.06l3.1-3.1h9.74
		c0.43,0,0.77,0.35,0.77,0.78c0,0.43-0.35,0.77-0.77,0.77h-8.06l-3.32,3.32l1.09,1.09l1.78-1.77v9.74H16.57z M32.5,37.14
		c0,0.43-0.35,0.78-0.77,0.78h-6.19c-0.43,0-0.78-0.35-0.78-0.78c0-0.43,0.35-0.77,0.78-0.77h6.19
		C32.15,36.37,32.5,36.72,32.5,37.14L32.5,37.14z M25.53,34.82c-0.43,0-0.78-0.35-0.78-0.78c0-0.43,0.35-0.77,0.78-0.77h6.19
		c0.43,0,0.77,0.35,0.77,0.77c0,0.43-0.35,0.78-0.77,0.78H25.53z M31.72,31.72h-6.19c-0.43,0-0.78-0.35-0.78-0.77
		c0-0.43,0.35-0.77,0.78-0.77h6.19c0.43,0,0.77,0.35,0.77,0.77C32.5,31.38,32.15,31.72,31.72,31.72L31.72,31.72z M21.34,17.8h3.74
		l1.23-1.23v-3.42c0.85,0,1.55,0.69,1.55,1.55v3.55l-2.64,2.64h-4l-2.64-2.64V14.7c0-0.85,0.7-1.55,1.55-1.55v3.42L21.34,17.8z
		 M21.67,22.44h3.09v3.1h-3.09V22.44z M26.31,21.99l3.09-3.09V14.7c0-1.71-1.39-3.1-3.09-3.1h-1.55v4.32l-0.32,0.32h-2.45
		l-0.32-0.32v-4.32h-1.55c-1.71,0-3.09,1.39-3.09,3.1v4.19l3.09,3.09v3.55h-1.87l-0.05,0.05c-2.64-1.7-4.27-4.63-4.27-7.79
		c0-5.12,4.16-9.29,9.28-9.29c5.12,0,9.29,4.17,9.29,9.29c0,3.13-1.57,6.01-4.19,7.74h-2V21.99z M30.91,27.49
		c-0.09-0.55-0.37-1.03-0.77-1.38c2.47-2.05,3.9-5.06,3.9-8.31c0-5.98-4.86-10.83-10.83-10.83c-5.97,0-10.83,4.86-10.83,10.83
		c0,3.57,1.78,6.9,4.69,8.91l-1.11,1.11c-3.21-2.33-5.13-6.05-5.13-10.03c0-6.83,5.56-12.38,12.38-12.38
		c6.83,0,12.38,5.56,12.38,12.38C35.59,21.62,33.86,25.15,30.91,27.49L30.91,27.49z M23.21,44.88c-0.85,0-1.55-0.69-1.55-1.55V30.18
		h1.69c-0.09,0.24-0.14,0.5-0.14,0.77c0,0.59,0.23,1.14,0.6,1.55c-0.37,0.41-0.6,0.95-0.6,1.55c0,0.6,0.23,1.14,0.6,1.55
		c-0.37,0.41-0.6,0.95-0.6,1.55c0,0.6,0.23,1.14,0.6,1.55c-0.37,0.41-0.6,0.95-0.6,1.55c0,1.01,0.65,1.86,1.55,2.18v0.92
		C24.76,44.19,24.07,44.88,23.21,44.88L23.21,44.88z M31.72,41.01h-6.19c-0.43,0-0.78-0.35-0.78-0.78s0.35-0.77,0.78-0.77h6.19
		c0.43,0,0.77,0.35,0.77,0.77S32.15,41.01,31.72,41.01L31.72,41.01z M38.14,28.04l-4.57,4.61c-0.04-0.05-0.08-0.1-0.12-0.15
		c0.37-0.41,0.6-0.95,0.6-1.55c0-1.21-0.93-2.19-2.11-2.3c3.28-2.63,5.2-6.58,5.2-10.85c0-7.68-6.25-13.93-13.93-13.93
		c-7.68,0-13.93,6.25-13.93,13.93c0,4.22,1.92,8.2,5.18,10.83H7.85l1.83-3.34l-0.19-0.37c-0.43-0.82-0.78-1.65-1.03-2.47l-0.12-0.37
		l-2.92-0.97v-6.62l2.92-0.97l0.12-0.38c0.26-0.82,0.6-1.65,1.03-2.47l0.18-0.35L8.29,7.56l4.68-4.68l2.76,1.38l0.35-0.18
		c0.82-0.43,1.65-0.77,2.47-1.03l0.37-0.12L19.9,0h6.62l0.97,2.92l0.37,0.12c0.82,0.26,1.65,0.6,2.47,1.03l0.35,0.18l2.76-1.38
		l4.68,4.68l-1.38,2.76l0.18,0.35c0.43,0.82,0.77,1.65,1.03,2.47l0.12,0.38l2.92,0.97v6.62l-2.92,0.97l-0.12,0.37
		c-0.26,0.82-0.6,1.65-1.03,2.47l-0.18,0.35L38.14,28.04z M38.14,28.04"/>
</g>
</svg>
