<!-- Generator: Adobe Illustrator 23.0.5, SVG Export Plug-In  -->
<svg version="1.1" xmlns="http://www.w3.org/2000/svg" xmlns:xlink="http://www.w3.org/1999/xlink" x="0px" y="0px" width="23.82px"
	 height="23.82px" viewBox="0 0 23.82 23.82" style="enable-background:new 0 0 23.82 23.82;" xml:space="preserve">
<style type="text/css">
	.st0{fill:#40B24A;}
</style>
<defs>
</defs>
<g>
	<path class="st0" d="M20.82,19.81c1.87-2.1,3-4.87,3-7.9c0-3.15-1.23-6.01-3.23-8.15c0,0,0,0,0-0.01
		c-2.09-2.22-5.01-3.64-8.26-3.75L12.09,0c-0.06,0-0.12,0-0.18,0c-0.06,0-0.12,0-0.18,0L11.5,0.01C8.25,0.12,5.32,1.54,3.24,3.76
		c0,0,0,0,0,0.01h0C1.23,5.9,0,8.76,0,11.91c0,3.03,1.14,5.79,3,7.9c0,0,0,0.01,0.01,0.01c0.01,0.01,0.02,0.01,0.03,0.02
		c2.1,2.34,5.11,3.85,8.47,3.97l0.23,0.01c0.06,0,0.12,0,0.18,0c0.06,0,0.12,0,0.18,0l0.23-0.01h0c3.36-0.11,6.37-1.63,8.47-3.98
		c0-0.01,0.01-0.01,0.02-0.02C20.82,19.82,20.82,19.81,20.82,19.81L20.82,19.81z M0.83,12.32h4.93c0.05,1.74,0.39,3.43,0.99,5.02
		c-1.17,0.42-2.29,0.99-3.33,1.7C1.88,17.21,0.92,14.87,0.83,12.32L0.83,12.32z M3.65,4.53c1.02,0.66,2.11,1.2,3.24,1.59
		C6.2,7.81,5.81,9.63,5.76,11.5H0.83C0.93,8.83,1.98,6.39,3.65,4.53L3.65,4.53z M22.99,11.5h-4.93c-0.05-1.87-0.43-3.69-1.13-5.38
		c1.14-0.4,2.22-0.93,3.24-1.59C21.85,6.39,22.89,8.83,22.99,11.5L22.99,11.5z M11.5,6.15c-1.19-0.03-2.35-0.21-3.48-0.53
		c0.83-1.71,2.01-3.25,3.48-4.53V6.15z M11.5,6.97v4.53H6.58c0.05-1.78,0.43-3.52,1.1-5.12C8.91,6.73,10.19,6.93,11.5,6.97
		L11.5,6.97z M12.32,6.97c1.31-0.03,2.59-0.23,3.82-0.59c0.67,1.6,1.04,3.34,1.1,5.12h-4.92V6.97z M12.32,6.15V1.08
		c1.47,1.28,2.65,2.83,3.48,4.53C14.67,5.93,13.51,6.11,12.32,6.15L12.32,6.15z M16.6,5.37c-0.79-1.65-1.89-3.16-3.24-4.45
		c2.41,0.31,4.57,1.4,6.24,3.01C18.65,4.52,17.64,5.01,16.6,5.37L16.6,5.37z M7.23,5.37c-1.05-0.36-2.05-0.84-3-1.44
		c1.67-1.6,3.83-2.69,6.24-3.01C9.11,2.21,8.01,3.72,7.23,5.37L7.23,5.37z M6.58,12.32h4.92v4.12c-1.36,0.04-2.69,0.25-3.97,0.63
		C6.96,15.58,6.63,13.97,6.58,12.32L6.58,12.32z M11.5,17.27v5.47c-1.57-1.37-2.81-3.04-3.65-4.9C9.03,17.49,10.25,17.3,11.5,17.27
		L11.5,17.27z M12.32,22.74v-5.47c1.25,0.04,2.47,0.23,3.65,0.58C15.13,19.69,13.9,21.36,12.32,22.74L12.32,22.74z M12.32,16.45
		v-4.12h4.92c-0.05,1.65-0.37,3.26-0.95,4.76C15.01,16.69,13.68,16.48,12.32,16.45L12.32,16.45z M18.06,12.32h4.93
		c-0.09,2.55-1.05,4.88-2.59,6.71c-1.05-0.71-2.16-1.27-3.33-1.7C17.68,15.76,18.01,14.06,18.06,12.32L18.06,12.32z M3.98,19.65
		c0.97-0.65,2.01-1.16,3.09-1.55c0.8,1.79,1.95,3.42,3.4,4.8C7.94,22.57,5.68,21.39,3.98,19.65L3.98,19.65z M13.36,22.9
		c1.45-1.38,2.6-3.01,3.4-4.8c1.08,0.39,2.12,0.91,3.09,1.55C18.14,21.39,15.88,22.57,13.36,22.9L13.36,22.9z M13.36,22.9"/>
</g>
</svg>
