<!-- Generator: Adobe Illustrator 23.0.5, SVG Export Plug-In  -->
<svg version="1.1" xmlns="http://www.w3.org/2000/svg" xmlns:xlink="http://www.w3.org/1999/xlink" x="0px" y="0px" width="51.21px"
	 height="51.21px" viewBox="0 0 51.21 51.21" style="enable-background:new 0 0 51.21 51.21;" xml:space="preserve">
<style type="text/css">
	.st0{fill:#52BA77;}
</style>
<defs>
</defs>
<g>
	<g>
		<path class="st0" d="M45.46,30.27l-0.26,0.14c-1.06-1.29-2.9-1.79-4.3-1.08c0,0-0.01,0-0.01,0.01l-0.62,0.33
			c-1.52-1.29-3.68-1.48-5.4-0.49l-3.34,1.82h-4.45c-0.96,0-1.92-0.22-2.78-0.64l-0.61-0.29c-3.55-1.73-7.78-1.32-10.93,1.07
			c-0.02,0.01-0.03,0.02-0.04,0.03l-1.48,1.32c-0.56,0.5-1.22,0.86-1.94,1.08l-0.84-2.75c-0.09-0.28-0.34-0.47-0.64-0.47H0.66
			c-0.19,0-0.37,0.08-0.5,0.22C0.04,30.71-0.02,30.9,0,31.09l2.38,19.53c0.04,0.33,0.33,0.58,0.66,0.58h10.72
			c0.21,0,0.41-0.1,0.54-0.27c0.13-0.17,0.16-0.39,0.1-0.59L13,45.73l4.38-2.77c0.59-0.32,1.28-0.41,1.93-0.25
			c0.01,0,0.03,0.01,0.04,0.01l8.92,1.64c2.42,0.43,4.93,0.08,7.13-1.01c0.03-0.01,0.06-0.03,0.08-0.05l15.43-10.59
			c0.29-0.2,0.38-0.59,0.19-0.89C49.94,29.87,47.45,29.19,45.46,30.27L45.46,30.27z M41.5,30.52c0.81-0.41,1.83-0.07,2.49,0.55
			l-5.85,3.16l-0.34,0.18c-0.19-0.52-0.46-1.02-0.8-1.45L41.5,30.52z M35.5,30.35c0.01,0,0.01-0.01,0.02-0.01
			c1.07-0.62,2.39-0.6,3.44,0.03l-2.97,1.6c-0.57-0.41-1.22-0.71-1.9-0.86L35.5,30.35z M3.64,49.88l-2.22-18.2h5.9l5.55,18.2H3.64z
			 M34.77,42.18c-1.94,0.95-4.14,1.25-6.26,0.87l-8.9-1.64c-0.98-0.24-2.01-0.1-2.89,0.39c-0.01,0.01-0.02,0.01-0.03,0.02
			l-4.09,2.59l-2.92-9.57c0.9-0.27,1.73-0.73,2.43-1.36l1.46-1.3c2.75-2.07,6.43-2.42,9.53-0.92l0.61,0.3
			c1.05,0.51,2.2,0.77,3.36,0.77H33c1.8,0,3.34,1.28,3.68,3.05l-4.3-0.19c-1.56-0.07-3.13,0-4.68,0.21
			c-0.36,0.05-0.61,0.39-0.56,0.75c0.05,0.36,0.38,0.62,0.74,0.57c1.47-0.2,2.96-0.27,4.44-0.21l5.06,0.23c0.01,0,0.02,0,0.03,0
			c0.37,0,0.67-0.3,0.67-0.67c0-0.11-0.01-0.22-0.01-0.32l0.69-0.37l7.34-3.96c1.16-0.63,2.59-0.4,3.5,0.56L34.77,42.18z
			 M34.77,42.18"/>
	</g>
	<path class="st0" d="M5.75,47.12c0,1.16,0.94,2.09,2.09,2.09c1.16,0,2.1-0.94,2.1-2.09c0-1.16-0.94-2.1-2.1-2.1
		C6.69,45.03,5.75,45.97,5.75,47.12L5.75,47.12z M7.85,46.36c0.42,0,0.76,0.34,0.76,0.76c0,0.42-0.34,0.76-0.76,0.76
		c-0.42,0-0.76-0.34-0.76-0.76C7.08,46.7,7.42,46.36,7.85,46.36L7.85,46.36z M7.85,46.36"/>
	<path class="st0" d="M30.66,7.22V5.03C30.65,2.25,28.39,0,25.61,0s-5.04,2.25-5.05,5.03v2.19c0.01,2.78,2.27,5.03,5.05,5.03
		S30.65,10,30.66,7.22L30.66,7.22z M21.89,7.22V5.03c0.01-2.05,1.67-3.7,3.72-3.7c2.04,0,3.71,1.65,3.72,3.7v2.19
		c-0.01,2.05-1.67,3.7-3.72,3.7C23.56,10.92,21.9,9.26,21.89,7.22L21.89,7.22z M21.89,7.22"/>
	<path class="st0" d="M17.47,25.97h16.28c0.37,0,0.67-0.3,0.67-0.66v-1.53h11.14c0.37,0,0.67-0.3,0.67-0.66V18.8
		c0-2.63-2.04-4.8-4.67-4.97c-0.35-0.03-0.54,0.2-0.68,0.38c-0.6,0.73-1.5,1.14-2.44,1.12c-0.94-0.02-1.82-0.48-2.38-1.24
		c-0.13-0.18-0.33-0.28-0.55-0.27c-0.87,0.02-1.71,0.27-2.45,0.71c-0.99-1.15-2.39-1.85-3.9-1.94c-0.34-0.01-0.52,0.19-0.69,0.4
		c-0.7,0.86-1.76,1.34-2.86,1.31c-1.11-0.03-2.13-0.56-2.79-1.45c-0.13-0.17-0.34-0.27-0.55-0.27c-1.46,0.04-2.85,0.64-3.86,1.68
		c-0.09,0.09-0.17,0.18-0.24,0.27c-0.69-0.42-1.47-0.66-2.27-0.71c-0.36-0.03-0.54,0.2-0.69,0.38c-0.6,0.73-1.5,1.14-2.44,1.12
		c-0.94-0.02-1.82-0.48-2.38-1.24c-0.13-0.17-0.33-0.28-0.55-0.27c-2.7,0.07-4.86,2.28-4.86,4.98v4.32c0,0.37,0.3,0.66,0.66,0.66
		h11.16v1.53C16.81,25.67,17.1,25.97,17.47,25.97L17.47,25.97z M35.22,15.17c0.83,0.94,2.02,1.48,3.28,1.49
		c1.26,0,2.45-0.53,3.29-1.47c1.79,0.27,3.11,1.8,3.11,3.61v3.65H34.42v-4.27c0-0.89-0.21-1.76-0.62-2.55
		C34.24,15.38,34.72,15.22,35.22,15.17L35.22,15.17z M21.98,13.93c0.93,1.08,2.28,1.7,3.71,1.7c1.42,0,2.78-0.61,3.71-1.68
		c2.11,0.29,3.69,2.1,3.69,4.23v6.46H18.14v-6.46C18.15,15.99,19.8,14.17,21.98,13.93L21.98,13.93z M6.31,22.45V18.8
		c0.01-1.85,1.4-3.41,3.24-3.63c0.83,0.94,2.02,1.48,3.28,1.49c1.26,0,2.45-0.53,3.29-1.47c0.46,0.07,0.9,0.22,1.3,0.46
		c-0.4,0.79-0.61,1.66-0.61,2.54v4.27H6.31z M6.31,22.45"/>
	<path class="st0" d="M42.94,9.2V7.28c0-2.49-2.02-4.5-4.5-4.5c-2.49,0-4.5,2.02-4.5,4.5V9.2c0,2.49,2.02,4.5,4.5,4.5
		C40.92,13.7,42.94,11.69,42.94,9.2L42.94,9.2z M35.26,9.2V7.28c0-1.75,1.42-3.17,3.17-3.17c1.75,0,3.17,1.42,3.17,3.17V9.2
		c0,1.75-1.42,3.17-3.17,3.17C36.68,12.37,35.26,10.95,35.26,9.2L35.26,9.2z M35.26,9.2"/>
	<path class="st0" d="M17.27,9.2V7.28c0-2.49-2.02-4.5-4.5-4.5c-2.49,0-4.5,2.02-4.5,4.5V9.2c0,2.49,2.02,4.5,4.5,4.5
		C15.26,13.7,17.27,11.69,17.27,9.2L17.27,9.2z M9.6,9.2V7.28c0-1.75,1.42-3.17,3.17-3.17c1.75,0,3.17,1.42,3.17,3.17V9.2
		c0,1.75-1.42,3.17-3.17,3.17C11.02,12.37,9.6,10.95,9.6,9.2L9.6,9.2z M9.6,9.2"/>
</g>
</svg>
