<!-- Generator: Adobe Illustrator 23.0.5, SVG Export Plug-In  -->
<svg version="1.1" xmlns="http://www.w3.org/2000/svg" xmlns:xlink="http://www.w3.org/1999/xlink" x="0px" y="0px" width="25.82px"
	 height="25.82px" viewBox="0 0 25.82 25.82" style="enable-background:new 0 0 25.82 25.82;" xml:space="preserve">
<style type="text/css">
	.st0{fill:#40B24A;}
</style>
<defs>
</defs>
<path class="st0" d="M12.91,25.82c7.13,0,12.91-5.78,12.91-12.91C25.82,5.78,20.04,0,12.91,0C5.78,0,0,5.78,0,12.91
	C0,20.04,5.78,25.82,12.91,25.82 M12.91,4.4l7.64,4.76H5.27L12.91,4.4z M5.12,9.6c0-0.08,0.04-0.16,0.05-0.24l7.31,4.55
	c0.01,0,0.03,0.01,0.04,0.01c0.01,0,0.02,0.01,0.03,0.02c0.05,0.03,0.11,0.05,0.16,0.06c0,0,0.01-0.3,0.02-0.3
	c0.06,0.01,0.12-0.29,0.18-0.29h0c0.06,0,0.12,0.3,0.18,0.29c0.01,0,0.01,0.15,0.02,0.15c0.05-0.01,0.11,0.04,0.16,0.01
	c0.01,0,0.02,0.03,0.03,0.02c0.01,0,0.02,0.01,0.02,0.01l7.34-4.54c0.02,0.08,0.07,0.16,0.07,0.24v7.3l-0.04-0.3
	c0,0.76-0.66,1.08-1.42,1.08H6.56c-0.76,0-1.44-0.01-1.44-0.77V9.6z"/>
</svg>
