<!-- Generator: Adobe Illustrator 23.0.5, SVG Export Plug-In  -->
<svg version="1.1" xmlns="http://www.w3.org/2000/svg" xmlns:xlink="http://www.w3.org/1999/xlink" x="0px" y="0px" width="38.5px"
	 height="45.02px" viewBox="0 0 38.5 45.02" style="enable-background:new 0 0 38.5 45.02;" xml:space="preserve">
<style type="text/css">
	.st0{clip-path:url(#SVGID_2_);fill:#52BA77;}
	.st1{fill:#FFFFFF;}
	.st2{fill:#6EA2A6;}
	.st3{fill:#52BA77;}
	.st4{clip-path:url(#SVGID_4_);fill:#52BA77;}
</style>
<defs>
</defs>
<g>
	<g>
		<g>
			<defs>
				<rect id="SVGID_1_" width="38.5" height="45.02"/>
			</defs>
			<clipPath id="SVGID_2_">
				<use xlink:href="#SVGID_1_"  style="overflow:visible;"/>
			</clipPath>
			<path class="st0" d="M36.4,30.06c-1.21,3.28-3.04,6.13-5.44,8.47c-2.73,2.67-6.31,4.79-10.63,6.3c-0.14,0.05-0.29,0.09-0.44,0.12
				c-0.2,0.04-0.4,0.06-0.6,0.06h-0.04c-0.21,0-0.42-0.02-0.64-0.06c-0.15-0.03-0.29-0.07-0.43-0.12c-4.33-1.51-7.91-3.63-10.65-6.3
				c-2.4-2.34-4.23-5.19-5.44-8.47c-2.2-5.96-2.07-12.53-1.97-17.81l0-0.08c0.02-0.44,0.03-0.89,0.04-1.4
				C0.2,8.3,2.18,6.24,4.66,6.11c5.18-0.29,9.18-1.98,12.6-5.31l0.03-0.03c0.57-0.52,1.28-0.78,1.99-0.77
				c0.69,0.01,1.37,0.26,1.92,0.77l0.03,0.03c3.42,3.34,7.43,5.02,12.6,5.31c2.48,0.14,4.45,2.19,4.49,4.67
				c0.01,0.51,0.02,0.97,0.04,1.4v0.04C38.48,17.5,38.6,24.08,36.4,30.06L36.4,30.06z M36.4,30.06"/>
		</g>
		<path class="st1" d="M30.47,22.51c0,6.17-5.01,11.2-11.18,11.22h-0.04c-6.19,0-11.22-5.03-11.22-11.22
			c0-6.19,5.03-11.22,11.22-11.22h0.04C25.46,11.31,30.47,16.34,30.47,22.51L30.47,22.51z M30.47,22.51"/>
		<path class="st2" d="M24.34,20.89"/>
	</g>
	<g>
		<g>
			<path class="st3" d="M24.17,21.17h-0.29v-1.34c0-2.47-1.96-4.54-4.42-4.58c-0.07,0-0.2,0-0.27,0c-2.45,0.04-4.41,2.11-4.41,4.58
				v1.34h-0.29c-0.44,0-0.8,0.45-0.8,1.02v6.71c0,0.56,0.36,1.02,0.8,1.02h9.67c0.44,0,0.8-0.46,0.8-1.02v-6.71
				C24.96,21.63,24.6,21.17,24.17,21.17L24.17,21.17z M20.24,25.53v2.03c0,0.23-0.2,0.43-0.43,0.43h-0.96
				c-0.23,0-0.43-0.2-0.43-0.43v-2.03c-0.22-0.22-0.36-0.53-0.36-0.87c0-0.64,0.49-1.2,1.13-1.22c0.07,0,0.2,0,0.27,0
				c0.63,0.03,1.13,0.58,1.13,1.22C20.59,25.01,20.46,25.31,20.24,25.53L20.24,25.53z M22,21.17h-5.33v-1.34
				c0-1.47,1.2-2.69,2.67-2.69c1.47,0,2.67,1.22,2.67,2.69V21.17z M22,21.17"/>
		</g>
	</g>
</g>
</svg>
